<svg width="147" height="152" viewBox="0 0 147 152" fill="none" xmlns="http://www.w3.org/2000/svg">
<rect y="92.1787" width="141.402" height="18.5374" rx="9.26868" transform="rotate(-40.6843 0 92.1787)" fill="#AE1729" fill-opacity="0.2"/>
<rect x="27.6887" y="101.137" width="141.402" height="18.5374" rx="9.26868" transform="rotate(-40.6843 27.6887 101.137)" fill="#AE1729" fill-opacity="0.5"/>
<rect x="26.8743" y="136.969" width="141.402" height="18.5374" rx="9.26868" transform="rotate(-40.6843 26.8743 136.969)" fill="#AE1729" fill-opacity="0.2"/>
<rect x="52.1199" y="44.7905" width="62.7067" height="52.9343" fill="white"/>
<g clip-path="url(#clip0_14_319)">
<path d="M83.8805 124.599C70.9214 124.599 58.493 119.451 49.3295 110.288C40.1661 101.124 35.0181 88.6958 35.0181 75.7367C35.0181 62.7776 40.1661 50.3492 49.3295 41.1857C58.493 32.0223 70.9214 26.8743 83.8805 26.8743C96.8396 26.8743 109.268 32.0223 118.431 41.1857C127.595 50.3492 132.743 62.7776 132.743 75.7367C132.743 88.6958 127.595 101.124 118.431 110.288C109.268 119.451 96.8396 124.599 83.8805 124.599ZM74.108 100.168L118.084 58.6348L110.755 51.3055L74.108 85.5091L57.0061 68.4073L49.6768 75.7367L74.108 100.168Z" fill="#AE1729"/>
</g>
<defs>
<clipPath id="clip0_14_319">
<rect width="97.7248" height="97.7248" fill="white" transform="translate(35.0181 26.8743)"/>
</clipPath>
</defs>
</svg>
