<svg width="30" height="30" viewBox="0 0 30 30" fill="none" xmlns="http://www.w3.org/2000/svg">
<path fill-rule="evenodd" clip-rule="evenodd" d="M15 27.5C8.09625 27.5 2.5 21.9037 2.5 15C2.5 8.09625 8.09625 2.5 15 2.5C21.9037 2.5 27.5 8.09625 27.5 15C27.5 21.9037 21.9037 27.5 15 27.5ZM15 26C17.9174 26 20.7153 24.8411 22.7782 22.7782C24.8411 20.7153 26 17.9174 26 15C26 12.0826 24.8411 9.28473 22.7782 7.22183C20.7153 5.15892 17.9174 4 15 4C12.0826 4 9.28473 5.15892 7.22183 7.22183C5.15892 9.28473 4 12.0826 4 15C4 17.9174 5.15892 20.7153 7.22183 22.7782C9.28473 24.8411 12.0826 26 15 26ZM11.25 12.1337C11.3462 10.25 12.6012 8.75 15.0525 8.75C17.25 8.75 18.75 10.11 18.75 11.9075C18.75 13.2762 18.0437 14.245 16.9275 14.9162C15.82 15.57 15.5062 16.0588 15.5062 16.9738V17.5413H13.98V16.7387C13.9712 15.5875 14.53 14.8013 15.7238 14.0875C16.7363 13.4675 17.1275 12.9188 17.1275 11.985C17.1275 10.9038 16.29 10.11 14.9913 10.11C13.675 10.11 12.8375 10.8862 12.7413 12.1337H11.25ZM14.7475 21.5175C14.6165 21.5192 14.4864 21.4946 14.365 21.4453C14.2437 21.396 14.1334 21.3228 14.0406 21.2302C13.9479 21.1377 13.8747 21.0274 13.8252 20.9061C13.7757 20.7848 13.751 20.6548 13.7525 20.5238C13.7525 19.9563 14.19 19.5287 14.7475 19.5287C15.3138 19.5287 15.7413 19.9563 15.7413 20.5238C15.7438 20.655 15.7198 20.7853 15.6708 20.907C15.6218 21.0288 15.5487 21.1393 15.4559 21.2321C15.3631 21.3249 15.2525 21.398 15.1308 21.447C15.0091 21.4961 14.8787 21.5201 14.7475 21.5175Z" fill="black"/>
</svg>
