<svg width="31" height="30" viewBox="0 0 31 30" fill="none" xmlns="http://www.w3.org/2000/svg">
<g clip-path="url(#clip0_111_42)">
<path d="M1.40625 30H21.0938C21.8691 30 22.5 29.3691 22.5 28.5938V21.5625C22.5 21.5531 22.4953 21.5456 22.4944 21.5363C22.5469 21.5044 22.5987 21.4716 22.65 21.4378L30.1369 28.9247C30.1801 28.9695 30.2317 29.0053 30.2889 29.0299C30.346 29.0546 30.4075 29.0676 30.4698 29.0682C30.532 29.0689 30.5937 29.0571 30.6514 29.0336C30.709 29.0101 30.7614 28.9754 30.8055 28.9314C30.8495 28.8875 30.8844 28.8352 30.9081 28.7776C30.9317 28.72 30.9437 28.6583 30.9432 28.5961C30.9428 28.5339 30.9299 28.4723 30.9054 28.4151C30.881 28.3579 30.8453 28.3061 30.8006 28.2628L23.3822 20.8444C23.9909 20.2764 24.4763 19.5893 24.8084 18.8258C25.1404 18.0624 25.312 17.2388 25.3125 16.4062C25.3111 15.3834 25.0522 14.3773 24.5597 13.4807C24.0672 12.5842 23.3569 11.8261 22.4944 11.2762C22.4953 11.2669 22.5 11.2594 22.5 11.25V8.90625C22.5 8.89031 22.4925 8.87719 22.4916 8.86219C22.4891 8.84156 22.485 8.82125 22.4794 8.80125C22.4643 8.73624 22.4356 8.67519 22.395 8.62219C22.3884 8.61375 22.3894 8.60344 22.3828 8.595L14.8828 0.1575L14.8734 0.151875C14.8161 0.0922859 14.7439 0.0489436 14.6644 0.02625C14.6475 0.02125 14.63 0.0178125 14.6119 0.0159375C14.5847 0.01125 14.5594 0 14.5312 0H1.40625C0.630937 0 0 0.630937 0 1.40625V28.5938C0 29.3691 0.630937 30 1.40625 30ZM24.375 16.4062C24.375 19.2497 22.0613 21.5625 19.2188 21.5625C16.3762 21.5625 14.0625 19.2497 14.0625 16.4062C14.0625 13.5628 16.3762 11.25 19.2188 11.25C22.0613 11.25 24.375 13.5628 24.375 16.4062ZM15 1.70156L20.9878 8.4375H15.4688C15.2625 8.4375 15 8.04375 15 7.73438V1.70156ZM0.9375 1.40625C0.9375 1.28193 0.986886 1.1627 1.07479 1.07479C1.1627 0.986886 1.28193 0.9375 1.40625 0.9375H14.0625V7.73438C14.0625 8.49281 14.6766 9.375 15.4688 9.375H21.5625V10.7822C20.4301 10.3085 19.1807 10.1892 17.9792 10.4401C16.7777 10.691 15.6804 11.3003 14.8322 12.1875H5.15625C5.03193 12.1875 4.9127 12.2369 4.82479 12.3248C4.73689 12.4127 4.6875 12.5319 4.6875 12.6562C4.6875 12.7806 4.73689 12.8998 4.82479 12.9877C4.9127 13.0756 5.03193 13.125 5.15625 13.125H14.0925C13.5491 13.9695 13.225 14.9362 13.1494 15.9375H5.15625C5.03193 15.9375 4.9127 15.9869 4.82479 16.0748C4.73689 16.1627 4.6875 16.2819 4.6875 16.4062C4.6875 16.5306 4.73689 16.6498 4.82479 16.7377C4.9127 16.8256 5.03193 16.875 5.15625 16.875H13.1484C13.2244 17.8763 13.5485 18.8428 14.0916 19.6875H5.15625C5.03193 19.6875 4.9127 19.7369 4.82479 19.8248C4.73689 19.9127 4.6875 20.0319 4.6875 20.1562C4.6875 20.2806 4.73689 20.3998 4.82479 20.4877C4.9127 20.5756 5.03193 20.625 5.15625 20.625H14.7656C14.7853 20.625 14.8022 20.6166 14.8219 20.6138C15.6701 21.5043 16.7686 22.1164 17.9722 22.3692C19.1758 22.6219 20.4277 22.5034 21.5625 22.0294V28.5938C21.5625 28.7181 21.5131 28.8373 21.4252 28.9252C21.3373 29.0131 21.2181 29.0625 21.0938 29.0625H1.40625C1.14375 29.0625 0.9375 28.8563 0.9375 28.5938V1.40625Z" fill="black"/>
<path d="M5.15625 9.375H10.7812C10.9056 9.375 11.0248 9.32561 11.1127 9.23771C11.2006 9.1498 11.25 9.03057 11.25 8.90625C11.25 8.78193 11.2006 8.6627 11.1127 8.57479C11.0248 8.48689 10.9056 8.4375 10.7812 8.4375H5.15625C5.03193 8.4375 4.9127 8.48689 4.82479 8.57479C4.73689 8.6627 4.6875 8.78193 4.6875 8.90625C4.6875 9.03057 4.73689 9.1498 4.82479 9.23771C4.9127 9.32561 5.03193 9.375 5.15625 9.375ZM5.15625 24.375H17.3438C17.4681 24.375 17.5873 24.3256 17.6752 24.2377C17.7631 24.1498 17.8125 24.0306 17.8125 23.9062C17.8125 23.7819 17.7631 23.6627 17.6752 23.5748C17.5873 23.4869 17.4681 23.4375 17.3438 23.4375H5.15625C5.03193 23.4375 4.9127 23.4869 4.82479 23.5748C4.73689 23.6627 4.6875 23.7819 4.6875 23.9062C4.6875 24.0306 4.73689 24.1498 4.82479 24.2377C4.9127 24.3256 5.03193 24.375 5.15625 24.375Z" fill="black"/>
</g>
<defs>
<clipPath id="clip0_111_42">
<rect width="30.9375" height="30" fill="white"/>
</clipPath>
</defs>
</svg>
