<svg width="30" height="30" viewBox="0 0 30 30" fill="none" xmlns="http://www.w3.org/2000/svg">
<g clip-path="url(#clip0_117_153)">
<path fill-rule="evenodd" clip-rule="evenodd" d="M10.257 1.50001C10.1455 1.49889 10.0351 1.52267 9.9339 1.56961L0.4341 5.98291C0.304408 6.04314 0.194637 6.13919 0.117725 6.25974C0.0408133 6.38029 -3.31839e-05 6.52031 2.02288e-08 6.66331V27.75C-2.9246e-05 27.876 0.0316979 28 0.0922511 28.1106C0.152804 28.2211 0.240231 28.3146 0.346457 28.3824C0.452683 28.4502 0.574283 28.4901 0.700026 28.4985C0.825769 28.5069 0.951601 28.4835 1.0659 28.4304L10.2498 24.1641L19.4337 28.4301C19.5328 28.4762 19.6407 28.5 19.7499 28.5C19.8591 28.5 19.9671 28.4762 20.0661 28.4301L24.6981 26.2788L26.6667 29.6883C26.7715 29.8697 26.9805 29.9809 27.2477 29.9976C27.515 30.0143 27.8185 29.9351 28.0917 29.7774C28.3648 29.6197 28.5852 29.3964 28.7043 29.1566C28.8234 28.9168 28.8315 28.6802 28.7268 28.4988L26.8638 25.272L29.5659 24.0171C29.6956 23.9569 29.8054 23.8608 29.8823 23.7403C29.9592 23.6197 30 23.4797 30 23.3367V2.25001C30 2.12398 29.9683 1.99998 29.9078 1.88946C29.8472 1.77894 29.7598 1.68546 29.6535 1.61765C29.5473 1.54984 29.4257 1.5099 29.3 1.5015C29.1742 1.4931 29.0484 1.51653 28.9341 1.56961L19.7502 5.83591L10.5663 1.56991C10.4693 1.52479 10.364 1.50095 10.257 1.50001ZM10.6935 3.28291L19.2963 7.27981L19.2945 7.54741C18.0748 7.58498 16.8835 7.92441 15.8271 8.53531C12.2826 10.5819 11.0619 15.1383 13.1082 18.6825C14.4207 20.9559 16.7634 22.2657 19.2102 22.3734L19.1856 26.6613L10.5831 22.665L10.6935 3.28291ZM9.7935 3.28891L9.6825 22.7739L1.5 26.5743V7.14211L9.7935 3.28891ZM28.5 3.42541V22.8585L26.1111 23.9685L25.0629 22.1532C25.0057 22.054 24.9168 21.9748 24.8023 21.9209C24.6878 21.867 24.5504 21.8398 24.3996 21.8412L23.8944 20.9673C26.9316 18.7656 27.8907 14.5719 25.9752 11.2542C24.9522 9.48181 23.301 8.29081 21.4629 7.79821C21.0474 7.68759 20.6231 7.61292 20.1948 7.57501L20.1966 7.28251L28.5 3.42541ZM19.389 9.18811C19.9452 9.17311 20.5007 9.23879 21.0381 9.38311C21.7716 9.57929 22.4591 9.91857 23.061 10.3814C23.6629 10.8443 24.1674 11.4216 24.5454 12.0801C24.9264 12.7367 25.174 13.4621 25.274 14.2147C25.3739 14.9672 25.3242 15.7321 25.1278 16.4654C24.9313 17.1987 24.5919 17.886 24.1291 18.4878C23.6664 19.0896 23.0893 19.594 22.431 19.9722C21.7743 20.3532 21.0488 20.6008 20.2962 20.7007C19.5436 20.8006 18.7786 20.7509 18.0452 20.5544C17.3119 20.3579 16.6245 20.0185 16.0227 19.5557C15.4208 19.0929 14.9163 18.5158 14.538 17.8575C14.1571 17.2008 13.9096 16.4754 13.8098 15.7228C13.71 14.9702 13.7597 14.2053 13.9562 13.472C14.1527 12.7387 14.4921 12.0515 14.9549 11.4496C15.4177 10.8478 15.9948 10.3433 16.653 9.96511C17.4859 9.48195 18.4265 9.21484 19.389 9.18811ZM22.56 21.7377L23.0649 22.6125C22.9883 22.7423 22.9431 22.8748 22.9324 23.0009C22.9216 23.127 22.9457 23.2436 23.0028 23.3427L23.9448 24.9744L20.0853 26.7675L20.1105 22.3575C20.9565 22.2934 21.7852 22.0835 22.56 21.7377Z" fill="black"/>
</g>
<defs>
<clipPath id="clip0_117_153">
<rect width="30" height="30" fill="white"/>
</clipPath>
</defs>
</svg>
