<svg width="35" height="35" viewBox="0 0 35 35" fill="none" xmlns="http://www.w3.org/2000/svg">
<path d="M10.2083 20.4167H15.5677C15.8351 19.8576 16.1452 19.3351 16.4981 18.8489C16.851 18.3628 17.2458 17.9132 17.6823 17.5H10.2083V20.4167ZM10.2083 26.25H14.6927C14.6198 25.7639 14.5833 25.2778 14.5833 24.7917C14.5833 24.3055 14.6198 23.8194 14.6927 23.3333H10.2083V26.25ZM7.29167 32.0833C6.48958 32.0833 5.80319 31.798 5.2325 31.2273C4.66181 30.6566 4.37597 29.9697 4.375 29.1667V5.83332C4.375 5.03124 4.66083 4.34485 5.2325 3.77416C5.80417 3.20346 6.49056 2.91763 7.29167 2.91666H18.9583L27.7083 11.6667V15.0208C27.2465 14.875 26.7726 14.7656 26.2865 14.6927C25.8003 14.6198 25.3021 14.5833 24.7917 14.5833V13.125H17.5V5.83332H7.29167V29.1667H15.5677C15.8351 29.7257 16.1452 30.2483 16.4981 30.7344C16.851 31.2205 17.2458 31.6701 17.6823 32.0833H7.29167ZM24.7917 17.5C26.809 17.5 28.5289 18.2112 29.9513 19.6335C31.3736 21.0559 32.0843 22.7753 32.0833 24.7917C32.0824 26.808 31.3712 28.5279 29.9498 29.9512C28.5284 31.3746 26.809 32.0853 24.7917 32.0833C22.7743 32.0814 21.0549 31.3702 19.6335 29.9498C18.2122 28.5294 17.501 26.81 17.5 24.7917C17.499 22.7733 18.2102 21.0539 19.6335 19.6335C21.0569 18.2131 22.7763 17.5019 24.7917 17.5ZM24.7917 29.1667C25.059 29.1667 25.2841 29.0758 25.4669 28.8939C25.6497 28.7121 25.7406 28.4871 25.7396 28.2187C25.7386 27.9504 25.6477 27.7258 25.4669 27.545C25.286 27.3642 25.061 27.2728 24.7917 27.2708C24.5224 27.2689 24.2978 27.3603 24.1179 27.545C23.9381 27.7297 23.8467 27.9543 23.8438 28.2187C23.8408 28.4832 23.9322 28.7083 24.1179 28.8939C24.3036 29.0796 24.5282 29.1705 24.7917 29.1667ZM24.1354 26.3958H25.4479V26.0312C25.4479 25.7639 25.5208 25.5267 25.6667 25.3196C25.8125 25.1125 25.9826 24.9122 26.1771 24.7187C26.5174 24.4271 26.7847 24.1476 26.9792 23.8802C27.1736 23.6128 27.2708 23.2361 27.2708 22.75C27.2708 22.0451 27.0399 21.4803 26.5781 21.0554C26.1163 20.6305 25.5208 20.4176 24.7917 20.4167C24.2326 20.4167 23.7285 20.581 23.2794 20.9096C22.8302 21.2382 22.5079 21.6815 22.3125 22.2396L23.4792 22.75C23.5521 22.4583 23.7042 22.2031 23.9356 21.9844C24.167 21.7656 24.4524 21.6562 24.7917 21.6562C25.1563 21.6562 25.4421 21.7476 25.6492 21.9304C25.8563 22.1132 25.9593 22.3864 25.9583 22.75C25.9583 23.0174 25.8854 23.2424 25.7396 23.4252C25.5938 23.608 25.4236 23.7961 25.2292 23.9896C25.0833 24.1354 24.9317 24.2812 24.7742 24.4271C24.6167 24.5729 24.4767 24.743 24.3542 24.9375C24.2813 25.0833 24.2268 25.2292 24.1908 25.375C24.1549 25.5208 24.1364 25.691 24.1354 25.8854V26.3958Z" fill="#E7B9BF"/>
</svg>
