<svg width="80" height="80" viewBox="0 0 80 80" fill="none" xmlns="http://www.w3.org/2000/svg">
<path d="M36.6667 70V36.6667H70V43.3333H48L70 65.3333L65.3333 70L43.3333 48V70H36.6667ZM23.3333 70V63.3333H30V70H23.3333ZM16.6667 16.6667H10C10 14.8333 10.6533 13.2644 11.96 11.96C13.2667 10.6556 14.8356 10.0022 16.6667 10V16.6667ZM23.3333 16.6667V10H30V16.6667H23.3333ZM36.6667 16.6667V10H43.3333V16.6667H36.6667ZM50 16.6667V10H56.6667V16.6667H50ZM63.3333 16.6667V10C65.1667 10 66.7367 10.6533 68.0433 11.96C69.35 13.2667 70.0022 14.8356 70 16.6667H63.3333ZM16.6667 63.3333V70C14.8333 70 13.2644 69.3478 11.96 68.0433C10.6556 66.7389 10.0022 65.1689 10 63.3333H16.6667ZM10 56.6667V50H16.6667V56.6667H10ZM10 43.3333V36.6667H16.6667V43.3333H10ZM10 30V23.3333H16.6667V30H10ZM63.3333 30V23.3333H70V30H63.3333Z" fill="#AE1729"/>
</svg>
