<svg width="24" height="24" viewBox="0 0 24 24" fill="none" xmlns="http://www.w3.org/2000/svg">
<path d="M10.5 12.75H12V14.25H10.5V12.75ZM10.5 9.75H13.5V11.25H10.5V9.75Z" fill="#AE1729"/>
<path d="M15.75 17.25H8.25C8.05109 17.25 7.86032 17.171 7.71967 17.0303C7.57902 16.8897 7.5 16.6989 7.5 16.5V7.5C7.5 7.30109 7.57902 7.11032 7.71967 6.96967C7.86032 6.82902 8.05109 6.75 8.25 6.75H15.75C15.9489 6.75 16.1397 6.82902 16.2803 6.96967C16.421 7.11032 16.5 7.30109 16.5 7.5V16.5C16.5 16.6989 16.421 16.8897 16.2803 17.0303C16.1397 17.171 15.9489 17.25 15.75 17.25ZM9 15.75H15V8.25H9V15.75Z" fill="#AE1729"/>
<path d="M12 0.75C11.8672 0.749933 11.7367 0.785132 11.622 0.852L2.622 6.102C2.50877 6.16808 2.41483 6.26268 2.34956 6.37638C2.28429 6.49008 2.24996 6.6189 2.25 6.75V17.25C2.24996 17.3811 2.28429 17.5099 2.34956 17.6236C2.41483 17.7373 2.50877 17.8319 2.622 17.898L11.622 23.148C11.7367 23.2149 11.8672 23.2502 12 23.2502C12.1328 23.2502 12.2633 23.2149 12.378 23.148L20.628 18.3353L19.872 17.04L12 21.6315L3.75 16.8195V7.18125L12 2.3685L20.25 7.1805V12.75H21.75V6.75C21.75 6.6189 21.7157 6.49008 21.6504 6.37638C21.5852 6.26268 21.4912 6.16808 21.378 6.102L12.378 0.852C12.2633 0.785132 12.1328 0.749933 12 0.75Z" fill="#AE1729"/>
</svg>
